<mxfile host="www.draw.io" modified="2020-06-11T06:13:55.013Z" agent="5.0 (Macintosh; Intel Mac OS X 10_13_6) AppleWebKit/537.36 (KHTML, like Gecko) Chrome/83.0.4103.97 Safari/537.36" etag="Qzlfk-cE4l1DgBhrsyqu" version="13.1.12" type="github">
  <diagram id="84AwpuuJj-5Rtr9jS45h" name="Page-1">
    <mxGraphModel dx="892" dy="498" grid="1" gridSize="10" guides="1" tooltips="1" connect="1" arrows="1" fold="1" page="1" pageScale="1" pageWidth="827" pageHeight="1169" math="0" shadow="0">
      <root>
        <mxCell id="0" />
        <mxCell id="1" parent="0" />
        <mxCell id="U1aay1wp2rzU3uqkuvZQ-1" value="提成方案 Commissionplan&lt;br&gt;CBOH_COMMISSIONPLAN_3CH" style="rounded=1;whiteSpace=wrap;html=1;" vertex="1" parent="1">
          <mxGeometry x="260" y="30" width="230" height="60" as="geometry" />
        </mxCell>
        <mxCell id="U1aay1wp2rzU3uqkuvZQ-2" value="提成方案适用门店 Commissionstore&lt;br&gt;CBOH_COMMISSIONSTORE_3CH" style="rounded=1;whiteSpace=wrap;html=1;" vertex="1" parent="1">
          <mxGeometry x="30" y="180" width="210" height="60" as="geometry" />
        </mxCell>
        <mxCell id="U1aay1wp2rzU3uqkuvZQ-8" value="提成方案明细之阶梯 CommissionStepPlan&lt;br&gt;CBOH_COMMISSION_STEPPLAN_3CH" style="rounded=1;whiteSpace=wrap;html=1;" vertex="1" parent="1">
          <mxGeometry x="510" y="180" width="239" height="60" as="geometry" />
        </mxCell>
        <mxCell id="U1aay1wp2rzU3uqkuvZQ-9" value="提成方案明细之菜品 Commissionitmcm&lt;br&gt;CBOH_COMMISSIONITMCM_3CH" style="rounded=1;whiteSpace=wrap;html=1;" vertex="1" parent="1">
          <mxGeometry x="260" y="180" width="230" height="60" as="geometry" />
        </mxCell>
        <mxCell id="U1aay1wp2rzU3uqkuvZQ-10" value="1" style="endArrow=open;html=1;endSize=12;startArrow=diamondThin;startSize=14;startFill=1;edgeStyle=orthogonalEdgeStyle;align=left;verticalAlign=bottom;exitX=0.25;exitY=1;exitDx=0;exitDy=0;" edge="1" parent="1" source="U1aay1wp2rzU3uqkuvZQ-1" target="U1aay1wp2rzU3uqkuvZQ-2">
          <mxGeometry x="-0.5408" y="-25" relative="1" as="geometry">
            <mxPoint x="280" y="140" as="sourcePoint" />
            <mxPoint x="440" y="140" as="targetPoint" />
            <mxPoint as="offset" />
          </mxGeometry>
        </mxCell>
        <mxCell id="U1aay1wp2rzU3uqkuvZQ-13" value="1" style="endArrow=open;html=1;endSize=12;startArrow=diamondThin;startSize=14;startFill=1;edgeStyle=orthogonalEdgeStyle;align=left;verticalAlign=bottom;exitX=0.5;exitY=1;exitDx=0;exitDy=0;" edge="1" parent="1" source="U1aay1wp2rzU3uqkuvZQ-1" target="U1aay1wp2rzU3uqkuvZQ-9">
          <mxGeometry x="-0.3333" y="5" relative="1" as="geometry">
            <mxPoint x="280" y="100" as="sourcePoint" />
            <mxPoint x="440" y="100" as="targetPoint" />
            <mxPoint as="offset" />
          </mxGeometry>
        </mxCell>
        <mxCell id="U1aay1wp2rzU3uqkuvZQ-14" value="按菜品" style="edgeLabel;html=1;align=center;verticalAlign=middle;resizable=0;points=[];" vertex="1" connectable="0" parent="U1aay1wp2rzU3uqkuvZQ-13">
          <mxGeometry x="0.2" y="-1" relative="1" as="geometry">
            <mxPoint as="offset" />
          </mxGeometry>
        </mxCell>
        <mxCell id="U1aay1wp2rzU3uqkuvZQ-16" value="1" style="endArrow=open;html=1;endSize=12;startArrow=diamondThin;startSize=14;startFill=1;edgeStyle=orthogonalEdgeStyle;align=left;verticalAlign=bottom;exitX=0.75;exitY=1;exitDx=0;exitDy=0;" edge="1" parent="1" source="U1aay1wp2rzU3uqkuvZQ-1" target="U1aay1wp2rzU3uqkuvZQ-8">
          <mxGeometry x="-0.791" relative="1" as="geometry">
            <mxPoint x="280" y="100" as="sourcePoint" />
            <mxPoint x="440" y="100" as="targetPoint" />
            <mxPoint as="offset" />
          </mxGeometry>
        </mxCell>
        <mxCell id="U1aay1wp2rzU3uqkuvZQ-17" value="启用阶梯" style="edgeLabel;html=1;align=center;verticalAlign=middle;resizable=0;points=[];" vertex="1" connectable="0" parent="U1aay1wp2rzU3uqkuvZQ-16">
          <mxGeometry x="0.0212" y="-1" relative="1" as="geometry">
            <mxPoint as="offset" />
          </mxGeometry>
        </mxCell>
        <mxCell id="U1aay1wp2rzU3uqkuvZQ-18" value="菜品 PubItem&lt;br&gt;CBOH_PUBITEM_3CH" style="rounded=1;whiteSpace=wrap;html=1;" vertex="1" parent="1">
          <mxGeometry x="290" y="310" width="170" height="60" as="geometry" />
        </mxCell>
        <mxCell id="U1aay1wp2rzU3uqkuvZQ-19" value="" style="endArrow=block;endFill=1;html=1;edgeStyle=orthogonalEdgeStyle;align=left;verticalAlign=top;entryX=0.5;entryY=0;entryDx=0;entryDy=0;exitX=0.5;exitY=1;exitDx=0;exitDy=0;" edge="1" parent="1" source="U1aay1wp2rzU3uqkuvZQ-9" target="U1aay1wp2rzU3uqkuvZQ-18">
          <mxGeometry x="-1" relative="1" as="geometry">
            <mxPoint x="280" y="250" as="sourcePoint" />
            <mxPoint x="440" y="250" as="targetPoint" />
          </mxGeometry>
        </mxCell>
        <mxCell id="U1aay1wp2rzU3uqkuvZQ-21" value="门店区域 StoreArear&lt;br&gt;CBOH_STOREAREAR_3CH" style="rounded=1;whiteSpace=wrap;html=1;" vertex="1" parent="1">
          <mxGeometry x="55" y="310" width="160" height="60" as="geometry" />
        </mxCell>
        <mxCell id="U1aay1wp2rzU3uqkuvZQ-23" value="" style="endArrow=block;endFill=1;html=1;edgeStyle=orthogonalEdgeStyle;align=left;verticalAlign=top;exitX=0.5;exitY=1;exitDx=0;exitDy=0;" edge="1" parent="1" source="U1aay1wp2rzU3uqkuvZQ-2" target="U1aay1wp2rzU3uqkuvZQ-21">
          <mxGeometry x="-1" relative="1" as="geometry">
            <mxPoint x="280" y="250" as="sourcePoint" />
            <mxPoint x="440" y="250" as="targetPoint" />
          </mxGeometry>
        </mxCell>
        <mxCell id="U1aay1wp2rzU3uqkuvZQ-24" value="" style="resizable=0;html=1;align=left;verticalAlign=bottom;labelBackgroundColor=#ffffff;fontSize=10;" connectable="0" vertex="1" parent="U1aay1wp2rzU3uqkuvZQ-23">
          <mxGeometry x="-1" relative="1" as="geometry" />
        </mxCell>
      </root>
    </mxGraphModel>
  </diagram>
</mxfile>
